# xmcd
#
# Track frame offsets: 
#        150
#        17965
#        47285
#        56589
#        83139
#        96454
#        129982
#        148697
#        157839
#        183960
#        211092
#        247392
#        275086
#        299490
#
# Disc length: 4232 seconds
#
# Revision: 0
# Processed by: cddbd v1.5.2PL0 Copyright (c) Steve Scherf et al.
# Submitted via: ExactAudioCopyFreeDBPlugin 1.0
#
DISCID=cd10860e
DTITLE=Various Artist - An Anthology of Turkish Experimental Music 1967 - 201
DTITLE=4 - CD1
DYEAR=2016
DGENRE=Electronic
TTITLE0=Bülent Arel - Postlude from Music for a  Sacred Service (1961)
TTITLE1=Batuhan Bozkurt - Kun (2012)
TTITLE2=Alper Maral - Sho (2001)
TTITLE3=Batur Sönmez - Flash Mental Experiment No. 23 (2012)
TTITLE4=Cenk Ergün - Forge (2008)
TTITLE5=Erdem Helvacioglu - Resonating Universes Part 1 (2010)
TTITLE6=Korhan Erel - Con-structure 2 (Death of Komarov on re-entry) (
TTITLE6=2006)
TTITLE7=Sair Sinan Kestelli - Earthworks (2007)
TTITLE8=Koray Tahiroglu - Iki El (2012)
TTITLE9=Mehmet Can Özer - Plug-Out: Baliklar II (2007)
TTITLE10=Tolga Tüzün - Uncomfortable Possibilities of Seamless Unions 
TTITLE10=(2012)
TTITLE11=Basar Ünder - Diving (2012)
TTITLE12=Nilüfer Ormanli - Life in the Mist of Finer Thoughts (2012)
TTITLE13=Ilhan Mimaroglu - Prelude No. 17 (Istanbul Fog) (1996)
EXTD=
EXTT0=
EXTT1=
EXTT2=
EXTT3=
EXTT4=
EXTT5=
EXTT6=
EXTT7=
EXTT8=
EXTT9=
EXTT10=
EXTT11=
EXTT12=
EXTT13=
PLAYORDER=
